<svg version="1" xmlns="http://www.w3.org/2000/svg" width="885.333" height="885.333" viewBox="0 0 664.000000 664.000000"><path d="M334.5 27.7v27.8l8.5.2c4.7.2 9.3.4 10.3.7.9.2 1.7.1 1.7-.2 0-.4 3.6-.7 8-.7s8 .3 8 .7c0 .4.6.5 1.4.2.7-.3 5.4-.6 10.2-.7l8.9-.2.1-27.8.1-27.7h-57.2v27.7zM583.8.7c-.4.7-.2 52.4.1 54.6 0 .4 1.3.7 2.9.7h4.2c.8.1 4.2.1 7.5.1 3.3-.1 6.7-.1 7.5 0h8c3.6-.1 7.2-.1 8 0 .8 0 4.4-.1 8-.2 3.6-.1 7 0 7.5.1 3.4.8 3.5.4 3.5-28V0h-28.4c-15.7 0-28.6.3-28.8.7zM461.3 60.8l-2.3.3v55.6l28.7-.1 28.8-.1V89.1c0-19.8-.3-27.5-1.2-27.8-1.3-.5-50.7-1-54-.5zM212 121.8l-2.5.3.2 26.7c.1 14.7.2 27.2.2 27.7.1.6 10.3 1 28.6 1H267l.1-2.5c.4-14.2.1-52.2-.5-52.7-.7-.7-49.2-1.1-54.6-.5zM334.6 122c-.1.3-.2 12.9-.2 28l.1 27.5h57v-56h-28.3c-15.6 0-28.5.2-28.6.5zM397.2 121.7c-.5.2-.8 40.6-.3 53.8.1 2 .7 2 28 2 15.4 0 28.2-.3 28.6-.7.5-.5.9-30.3.6-50.8l-.1-4.5h-28c-15.4 0-28.3.1-28.8.2zM147.5 210.2c0 24 .2 27.8 1.5 27.9 4.5.4 53.7.4 54.8.1.9-.3 1.2-6.8 1.2-28.1v-27.6h-28.8l-28.7-.1v27.8zM334.9 183.5c-.1.5-.2 13-.3 27.7-.1 17.6.2 26.8.9 26.9 4.5.4 54.9.3 55.5-.1.4-.3.7-12.9.6-28l-.1-27.5h-28.2c-18.8-.1-28.3.3-28.4 1zM23 271.1V299l14.8.1c35 .1 41.1.1 41.9-.4.6-.4 1-51 .4-54.9-.1-.3-12.9-.6-28.6-.6H23v27.9zM209.9 245.9c-.2 9.7.1 52.5.5 52.8.6.6 55.7.6 56.3-.1.4-.4.8-49.4.4-54.2-.1-.9-7.9-1.2-28.6-1.2H210l-.1 2.7zM149.5 304c-2 .7-2 1.6-2 28.1v27.4h11.3c6.1 0 11.2.2 11.2.5s2.5.5 5.5.5 5.5-.2 5.5-.5 3.3-.4 7.2-.2c10.6.4 14.9.3 15.9-.4.5-.3.9-12.5.9-27.8 0-26.5-.1-27.4-2-27.9-1.1-.3-2-.2-2 .1 0 .4-3.4.7-7.5.7s-7.5-.4-7.5-.8c0-.5-.5-.5-1-.2-.6.4-5.2.6-10.3.5-8.9-.1-10.9-.1-19 .3-2 .1-3.8-.1-4-.4-.1-.4-1.1-.3-2.2.1zM218.7 303.7c-.3.3-2.5.6-4.8.7l-4.2.1.1 25.5c0 14 .1 26.4.1 27.6.1 2.3.2 2.4 12.1 2.3 4.7-.1 9.2-.1 10 0h8c3.6-.1 7-.1 7.5 0 6.7.2 12.2.2 13 .1.6-.1 2.2-.1 3.8 0 1.6.1 2.7-.4 2.8-1.2 0-.7.1-13.2.1-27.8l.1-26.5-2.4-.2c-1.3-.2-4.9-.3-7.9-.3s-6.6 0-8-.1h-4c-4.4.2-12.6.3-13.5.1-.5-.1-1.3-.1-1.7 0-1.8.4-7.6.3-9-.3-.9-.3-1.8-.3-2.1 0zM344.9 303.5c-.3.2-2.7.6-5.5.7l-4.9.3v55l2.5.2c5.4.6 11 .6 11.6.1.3-.3 2-.2 3.9.2s3.6.5 3.9.2c.3-.3 3.6-.5 7.3-.4 13.3.3 15.8.4 16.8.2.6-.1 3.3-.3 6-.3l5-.2.1-27.7.1-27.6h-11.3c-6.2 0-11.7-.3-12.3-.7-.6-.3-1.1-.3-1.1.2 0 1-20.3 1.1-21.1 0-.3-.4-.8-.5-1-.2zM89.4 364.8l-4.1.3V393l.1 27.8 28.5-.1 28.6-.2.1-27.8.1-27.7h-3.1c-1.7 0-12.8-.2-24.6-.3-11.8-.1-23.4-.1-25.6.1zM215.5 364.8l-6 .3.2 24.2c.1 13.3.2 25.9.2 27.9l.1 3.7 28.5-.1c20.7 0 28.5-.3 28.6-1.2 0-.6.2-13.1.2-27.8l.2-26.8H264c-1.9 0-12.3-.2-23-.3-10.7-.1-22.2-.1-25.5.1zM273 365.5c-.9 1.2-1.8 9.5-1 9.5.3 0 .4 1.7.3 3.7-.3 4.7-.3 8 0 26.8l.2 15h57l.1-26c.1-14.3-.1-26.9-.3-28-.4-1.9-1.2-2-27.9-2-17.2 0-27.9.4-28.4 1zM341 365l-6.5.5v55h57l.1-27.8c.1-15.2-.2-27.7-.5-27.7-5.6-.4-45.3-.4-50.1 0zM148.7 426c-.9.4-1.2 7.2-1.2 27.7 0 15 .2 27.4.5 27.4.3.1 13.2.2 28.8.3l28.2.2v-56.1h-27.5c-15.2 0-28.1.2-28.8.5zM210.3 426.4c-.8 1.2-.5 53.7.3 54.5.6.6 52.9 1.1 55.4.5 1.3-.3 1.5-4.1 1.4-27.4-.1-14.9-.4-27.4-.8-27.8-1-1-55.7-.9-56.3.2zM334.6 426c-.1.3-.2 12.9-.2 28l.1 27.5h57l.1-27.8c.1-19.8-.2-27.7-1-27.8-4-.4-55.8-.3-56 .1zM86.1 487c-.5.3-.8 12.8-.8 27.7 0 27 0 27.3 2.1 27.4 5.7.3 52.3.4 53.7.1 1.3-.3 1.5-3.7 1.5-28l-.1-27.7h-27.8c-15.3 0-28.2.2-28.6.5zM148.1 487.5c-.4.5-.7 13.1-.7 28l.1 26.9 27 .1c14.9 0 27.8-.1 28.8-.3 1.6-.4 1.7-2.4 1.5-28.1l-.3-27.6h-27.8c-17.7 0-28.1.3-28.6 1zM272.5 487c-.6 1.1-.3 55 .3 55.1.4.1 13.3.2 28.7.3l28 .1v-27.8c0-17.9-.3-27.7-1-27.8-3.3-.4-55.7-.3-56 .1zM336 486.8c-1.3.2-1.5 4-1.5 27 0 14.7.3 27.1.7 27.7.4.6 10.7.9 28 .9 15-.1 27.6-.2 27.9-.3.4-.1.6-12.6.5-27.8l-.1-27.8h-27c-14.9 0-27.7.1-28.5.3zM23 575.2V603l4.8.1c19 .2 51.4-.1 52-.5.5-.3.8-51.5.3-54.7-.1-.3-12.9-.6-28.6-.6H23v27.9zM210 550.9c-.2 38.6-.1 51.4.3 51.8.3.2 13.2.5 28.6.6 24.4.2 28.1 0 28.2-1.3.1-1.9.1-48.6 0-52.1l-.1-2.6h-28.5l-28.5.1v3.5zM396.9 547.5s-.1 12.5-.2 27.8l-.2 27.7h2.5c1.4.1 14.3.2 28.8.3l26.2.2.1-5.5c.2-22.2 0-49-.5-49.8-.4-.6-55.8-1.4-56.7-.7zM297.8 607.5c-.3.4-6.2.7-13.1.7l-12.5.1V664h57.3v-55.5h-7.3c-3.9 0-7.2-.3-7.2-.7 0-.4-.6-.5-1.3-.3-2.2.9-14.7 1-15 .2-.1-.5-.5-.5-.9-.2z"/></svg>