<svg xmlns="http://www.w3.org/2000/svg" viewBox="0 0 154.68 166.116"><defs><clipPath id="a"><path d="M0 226.77h850.39V0H0z"/></clipPath></defs><g clip-path="url(#a)" transform="matrix(1.33333 0 0 -1.33333 -39.13999942 234.4946576)"><path d="M52.742 74.106h10.769v10.485H52.742z" fill="#20427c"/><path d="M76.128 74.106h10.769v10.485H76.128z" fill="#71be44"/><path d="M87.825 74.106h10.764v10.485H87.825z" fill="#e43c8e"/><path d="M98.589 96H87.825V85.517h10.764z" fill="#f8e519"/><path d="M98.589 107.411H87.825V96.926h10.764zM87.825 131.156h10.764v10.484H87.825z" fill="#754122"/><path d="M86.897 107.411H76.128V96.926h10.769z" fill="#20427c"/><path d="M75.202 96H64.436V85.517h10.766zM64.436 119.748h10.766v10.483H64.436z" fill="#754122"/><path d="M87.825 142.567h10.764v10.483H87.825z" fill="#f8e519"/><path d="M99.516 142.567h10.77v10.483h-10.77z" fill="#e43c8e"/><path d="M121.978 164.46h-10.766v-10.483h10.766z" fill="#71be44"/><path d="M63.51 118.821H52.741v-10.485H63.51z" fill="#20427c"/><path d="M75.202 118.821H64.436v-10.485h10.766z" fill="#71be44"/><path d="M41.049 74.106h10.767v10.485H41.049z" fill="#754122"/><path d="M41.049 96.926h10.767v10.485H41.049zM52.742 131.156h10.769v10.484H52.742z" fill="#f8e519"/><path d="M75.202 153.05H64.436v-10.483h10.766z" fill="#20427c"/><path d="M29.355 119.748h10.768v10.483H29.355z" fill="#e43c8e"/><path d="M87.825 165.386h10.764v10.485H87.825z" fill="#754122"/><path d="M134.597 165.386h10.768v10.485h-10.768z" fill="#e43c8e"/><path d="M64.436 62.697h10.766v10.482H64.436z" fill="#f8e519"/><path d="M29.355 62.697h10.768v10.482H29.355z" fill="#71be44"/><path d="M76.128 51.284h10.769V61.77H76.128z" fill="#20427c"/><path d="M75.202 107.411H64.436V96.926h10.766zM87.825 108.336h10.766v10.485H87.825z" fill="#e43c8e"/><path d="M63.51 96H52.741V85.517H63.51z" fill="#71be44"/><path d="M99.516 62.697h10.77v10.482h-10.77z" fill="#754122"/></g></svg>